<?xml version="1.0" encoding="utf-8"?>
<!-- Generator: Adobe Illustrator 20.0.0, SVG Export Plug-In . SVG Version: 6.00 Build 0)  -->
<svg version="1.1" id="Layer_1" xmlns="http://www.w3.org/2000/svg" xmlns:xlink="http://www.w3.org/1999/xlink" x="0px" y="0px"
	 viewBox="0 0 512 512" style="enable-background:new 0 0 512 512;" xml:space="preserve">
<style type="text/css">
	.st0{fill:#FFFFFF;}
</style>
<g>
	<g>
		<g>
			<path class="st0" d="M204.8,332.8c0-51.8-42.1-93.9-93.9-93.9S17.1,281,17.1,332.8s42.1,93.9,93.9,93.9
				C162.7,426.7,204.8,384.6,204.8,332.8z M34.1,332.8c0-42.3,34.4-76.8,76.8-76.8s76.8,34.5,76.8,76.8s-34.4,76.8-76.8,76.8
				C68.6,409.6,34.1,375.1,34.1,332.8z"/>
			<path class="st0" d="M119.7,332.8c0-4.7-3.8-8.5-8.5-8.5h-0.1c-4.7,0-8.5,3.8-8.5,8.5s3.9,8.5,8.6,8.5
				C115.9,341.3,119.7,337.5,119.7,332.8z"/>
			<path class="st0" d="M153.6,332.8c0-23.5-19.1-42.7-42.7-42.7c-23.5,0-42.7,19.1-42.7,42.7c0,23.5,19.1,42.7,42.7,42.7
				S153.6,356.3,153.6,332.8z M85.3,332.8c0-14.1,11.5-25.6,25.6-25.6s25.6,11.5,25.6,25.6s-11.5,25.6-25.6,25.6
				S85.3,346.9,85.3,332.8z"/>
			<path class="st0" d="M418.1,426.7c32.9,0,59.7-26.8,59.7-59.7s-26.8-59.7-59.7-59.7s-59.7,26.8-59.7,59.7
				S385.2,426.7,418.1,426.7z M418.1,324.3c23.5,0,42.7,19.1,42.7,42.7c0,23.5-19.1,42.7-42.7,42.7c-23.5,0-42.7-19.1-42.7-42.7
				C375.5,343.4,394.6,324.3,418.1,324.3z"/>
			<path class="st0" d="M418.1,392.5c14.1,0,25.6-11.5,25.6-25.6s-11.5-25.6-25.6-25.6s-25.6,11.5-25.6,25.6S404,392.5,418.1,392.5z
				 M418.1,358.4c4.7,0,8.5,3.8,8.5,8.5s-3.8,8.5-8.5,8.5s-8.5-3.8-8.5-8.5C409.6,362.2,413.4,358.4,418.1,358.4z"/>
			<path class="st0" d="M469.3,204.8h-25.6v-42.7c0-4.7-3.8-8.5-8.5-8.5s-8.5,3.8-8.5,8.5v42.7H339L289.7,57
				c-1.2-3.5-4.4-5.8-8.1-5.8H110.9c-4.2,0-7.9,3.1-8.4,7.3L85.4,178c-0.7,4.7,2.6,9,7.2,9.7c4.7,0.7,9-2.6,9.7-7.2l16-112.1h36.9
				l32.6,146.9c0.9,3.9,4.3,6.7,8.3,6.7h273.1c12.7,0,21.4,6.4,24.4,17.1H418c-4.7,0-8.5,3.8-8.5,8.5s3.8,8.5,8.5,8.5h76.8v17.1H418
				c-4.7,0-8.5,3.8-8.5,8.5s3.8,8.5,8.5,8.5h76.8V367c0,4.7,3.8,8.5,8.5,8.5s8.5-3.8,8.5-8.5V247.5
				C512,222.3,494.5,204.8,469.3,204.8z M286.9,204.8l10.9-21.8c2.1-4.2,0.4-9.3-3.8-11.5c-4.2-2.1-9.3-0.4-11.4,3.8l-14.7,29.4
				h-64.7L172.8,68.3h102.7L321,204.8H286.9L286.9,204.8z"/>
			<path class="st0" d="M332.8,238.9c-4.7,0-8.5,3.8-8.5,8.5v110.9H239v-25.6c0-23.3-6.3-46.1-18.3-66c-23.4-38.8-64.4-62-109.7-62
				S24.6,228,1.2,266.8c-2.4,4-1.1,9.3,2.9,11.7c4,2.4,9.3,1.1,11.7-2.9c20.3-33.7,55.8-53.8,95.1-53.8s74.8,20.1,95.1,53.8
				c10.4,17.2,15.8,37,15.8,57.2v34.1c0,4.7,3.8,8.5,8.5,8.5h102.4c4.7,0,8.5-3.8,8.5-8.5V247.5
				C341.3,242.8,337.5,238.9,332.8,238.9z"/>
		</g>
	</g>
</g>
</svg>
