<?xml version="1.0" encoding="utf-8"?>
<!-- Generator: Adobe Illustrator 20.0.0, SVG Export Plug-In . SVG Version: 6.00 Build 0)  -->
<svg version="1.1" id="Layer_1" xmlns="http://www.w3.org/2000/svg" xmlns:xlink="http://www.w3.org/1999/xlink" x="0px" y="0px"
	 viewBox="0 0 512 512" style="enable-background:new 0 0 512 512;" xml:space="preserve">
<g>
	<g>
		<g>
			<path d="M110.9,324.3c-14.1,0-25.6,11.5-25.6,25.6s11.5,25.6,25.6,25.6s25.6-11.5,25.6-25.6S125,324.3,110.9,324.3z M110.9,358.4
				c-4.7,0-8.5-3.8-8.5-8.5s3.8-8.5,8.5-8.5c4.7,0,8.5,3.8,8.5,8.5C119.5,354.6,115.6,358.4,110.9,358.4z"/>
			<path d="M452.3,68.3H25.6C11.5,68.3,0,79.8,0,93.9v238.9c0,14.1,11.5,25.6,25.6,25.6c4.7,0,8.5-3.8,8.5-8.5s-3.8-8.5-8.5-8.5
				c-4.7,0-8.5-3.8-8.5-8.5v-25.6h8.5c4.7,0,8.5-3.8,8.5-8.5s-3.8-8.5-8.5-8.5h-8.5V93.9c0-4.7,3.8-8.5,8.5-8.5h366.9v17.1H42.7
				c-4.7,0-8.5,3.8-8.5,8.5s3.8,8.5,8.5,8.5h8.5v102.4h-8.5c-4.7,0-8.5,3.8-8.5,8.5s3.8,8.5,8.5,8.5h349.9v34.1
				c0,4.7,3.8,8.5,8.5,8.5s8.5-3.8,8.5-8.5v-34.1h85.3v51.2h-8.5c-4.7,0-8.5,3.8-8.5,8.5s3.8,8.5,8.5,8.5h8.5v25.6
				c0,4.7-3.8,8.5-8.5,8.5h-26.3c-4.2-28.9-29-51.2-59.1-51.2c-32.9,0-59.7,26.8-59.7,59.7c0,32.9,26.8,59.7,59.7,59.7
				c30,0,54.9-22.3,59.1-51.2h26.3c14.1,0,25.6-11.5,25.6-25.6V128C512,94.5,485.8,68.3,452.3,68.3z M136.5,221.9H68.3V119.5h68.3
				L136.5,221.9L136.5,221.9z M221.9,221.9h-68.3V119.5h68.3V221.9z M307.2,221.9h-68.3V119.5h68.3V221.9z M392.5,221.9h-68.3V119.5
				h68.3V221.9z M401.1,392.5c-23.5,0-42.7-19.1-42.7-42.7c0-23.5,19.1-42.7,42.7-42.7c23.5,0,42.7,19.1,42.7,42.7
				C443.7,373.4,424.6,392.5,401.1,392.5z M494.9,221.9h-28.9l10.9-21.8c2.1-4.2,0.4-9.3-3.8-11.4c-4.2-2.1-9.3-0.4-11.5,3.8
				L447,221.9h-37.4V85.3h42.7c24.3,0,42.7,18.3,42.7,42.7L494.9,221.9L494.9,221.9z"/>
			<path d="M324.3,349.9c0-4.7-3.8-8.5-8.5-8.5H170c-4.2-28.9-29-51.2-59.1-51.2c-32.9,0-59.7,26.8-59.7,59.7
				c0,32.9,26.8,59.7,59.7,59.7c30,0,54.9-22.3,59.1-51.2h145.7C320.4,358.4,324.3,354.6,324.3,349.9z M110.9,392.5
				c-23.5,0-42.7-19.1-42.7-42.7c0-23.5,19.1-42.7,42.7-42.7c23.5,0,42.7,19.1,42.7,42.7S134.5,392.5,110.9,392.5z"/>
			<path d="M401.1,324.3c-14.1,0-25.6,11.5-25.6,25.6s11.5,25.6,25.6,25.6s25.6-11.5,25.6-25.6S415.2,324.3,401.1,324.3z
				 M401.1,358.4c-4.7,0-8.5-3.8-8.5-8.5s3.8-8.5,8.5-8.5s8.5,3.8,8.5,8.5C409.6,354.6,405.8,358.4,401.1,358.4z"/>
			<path d="M332.8,307.2c4.7,0,8.5-3.8,8.5-8.5s-3.8-8.5-8.5-8.5H179.2c-4.7,0-8.5,3.8-8.5,8.5s3.8,8.5,8.5,8.5H332.8z"/>
		</g>
	</g>
</g>
</svg>
