<?xml version="1.0" encoding="utf-8"?>
<!-- Generator: Adobe Illustrator 20.0.0, SVG Export Plug-In . SVG Version: 6.00 Build 0)  -->
<svg version="1.1" id="Layer_1" xmlns="http://www.w3.org/2000/svg" xmlns:xlink="http://www.w3.org/1999/xlink" x="0px" y="0px"
	 viewBox="0 0 512 512" style="enable-background:new 0 0 512 512;" xml:space="preserve">
<g>
	<g>
		<g>
			<path d="M501,250l-23.4-23.4l-8.2-98.6c0-23.5-19.1-42.7-42.7-42.7h-59.7c-4.7,0-8.5,3.8-8.5,8.5s3.8,8.5,8.5,8.5h59.7
				c13.9,0,25.6,11.7,25.6,26.3l7.8,93.2h-28.1l10.9-21.8c2.1-4.2,0.4-9.3-3.8-11.4c-4.2-2.1-9.3-0.4-11.5,3.8l-14.7,29.4h-45.9
				c-4.7,0-8.5,3.8-8.5,8.5s3.8,8.5,8.5,8.5h98.9l23.1,23.1c4.9,4.9,6,16.1,6,19.6v8.5h-8.5c-4.7,0-8.5,3.8-8.5,8.5s3.8,8.5,8.5,8.5
				h8.5v68.3h-17.7c-4.2-28.9-29-51.2-59.1-51.2c-32.9,0-59.7,26.8-59.7,59.7s26.8,59.7,59.7,59.7c30,0,54.9-22.3,59.1-51.2h26.3
				c4.7,0,8.5-3.8,8.5-8.5V281.6C512,279.5,511.7,260.7,501,250z M418.1,426.7c-23.5,0-42.7-19.1-42.7-42.7s19.1-42.7,42.7-42.7
				c23.5,0,42.7,19.1,42.7,42.7S441.7,426.7,418.1,426.7z"/>
			<path d="M128,358.4c-14.1,0-25.6,11.5-25.6,25.6s11.5,25.6,25.6,25.6s25.6-11.5,25.6-25.6S142.1,358.4,128,358.4z M128,392.5
				c-4.7,0-8.5-3.8-8.5-8.5s3.8-8.5,8.5-8.5s8.5,3.8,8.5,8.5S132.7,392.5,128,392.5z"/>
			<path d="M418.1,358.4c-14.1,0-25.6,11.5-25.6,25.6s11.5,25.6,25.6,25.6s25.6-11.5,25.6-25.6S432.2,358.4,418.1,358.4z
				 M418.1,392.5c-4.7,0-8.5-3.8-8.5-8.5s3.8-8.5,8.5-8.5s8.5,3.8,8.5,8.5S422.8,392.5,418.1,392.5z"/>
			<path d="M332.8,34.1H42.7C19.1,34.1,0,53.3,0,76.8v273.1c0,23.9,18.7,42.7,42.7,42.7c4.7,0,8.5-3.8,8.5-8.5s-3.8-8.5-8.5-8.5
				c-14.4,0-25.6-11.2-25.6-25.6V76.8c0-14.1,11.5-25.6,25.6-25.6h281.6v238.9H42.7c-4.7,0-8.5,3.8-8.5,8.5s3.8,8.5,8.5,8.5h281.6
				v68.3H187.1c-4.2-28.9-29-51.2-59.1-51.2c-32.9,0-59.7,26.8-59.7,59.7s26.8,59.7,59.7,59.7c30,0,54.9-22.3,59.1-51.2h145.7
				c4.7,0,8.5-3.8,8.5-8.5V42.7C341.3,38,337.5,34.1,332.8,34.1z M128,426.7c-23.5,0-42.7-19.1-42.7-42.7s19.1-42.7,42.7-42.7
				c23.5,0,42.7,19.1,42.7,42.7S151.5,426.7,128,426.7z"/>
		</g>
	</g>
</g>
</svg>
