<?xml version="1.0" encoding="utf-8"?>
<!-- Generator: Adobe Illustrator 20.0.0, SVG Export Plug-In . SVG Version: 6.00 Build 0)  -->
<svg version="1.1" id="Layer_1" xmlns="http://www.w3.org/2000/svg" xmlns:xlink="http://www.w3.org/1999/xlink" x="0px" y="0px"
	 viewBox="0 0 512 512" style="enable-background:new 0 0 512 512;" xml:space="preserve">
<g>
	<g>
		<g>
			<g>
				<g>
					<g>
						<path d="M428.2,235.7c-11.2,0-21.8,2.2-31.6,6.3l-4.6-8.6c11.2-4.8,23.4-7.4,36.1-7.4c15.8,0,31.4,4.1,45.1,11.8
							c3.9,2.2,8.9,0.8,11.1-3.1c2.2-3.9,0.8-8.9-3.1-11.1c-16.2-9.1-34.5-13.9-53.1-13.9c-15.4,0-30.3,3.3-43.8,9.2l-8.1-15.1
							c0.8,0.1,1.5,0.1,2.3,0.1h18.9c4.5,0,8.2-3.7,8.2-8.2V143c0-4.5-3.7-8.2-8.2-8.2h-18.9c-12.8,0-24,7.2-29.6,17.8l-14.4-27
							c-1.4-2.7-4.2-4.3-7.2-4.3h-38.5c-4.5,0-8.2,3.7-8.2,8.2c0,4.5,3.7,8.2,8.2,8.2h33.6l13.9,26c-1.8-1.3-3.7-2.5-5.7-3.6
							c-12.3-6.5-27.2-6.8-39.8-1l-25.4,11.8c-9.2,4.3-16.4,11.3-21,19.7c-7.3-8.1-17.5-13.6-29.1-14.9l-123.9-14
							c-6.3-0.7-12.7,1.3-17.4,5.5c-4.7,4.2-7.5,10.3-7.5,16.7v35.9c-1.6,0.7-3.1,1.4-4.6,2.2c-28.2,14.5-48.6,40.4-56,71.1
							c-1.1,4.4,1.6,8.8,6,9.9c0.6,0.2,1.3,0.2,1.9,0.2c3.7,0,7-2.5,7.9-6.2c6.3-26,23.7-48.1,47.6-60.4c8.5-4.4,18.4-6.7,28.4-6.7
							h11.3l218.2,0c0,0-20.1,38.9-28.6,53.9c-8.5,15-25.3,25.6-47.8,26.3c-22.5,0.7-56.8,0-56.8,0s-6.9-73.2-82.3-74
							c-42.5-0.4-77.9,32.5-82.3,74H10.7c-4.5,0-8.2,3.7-8.2,8.2V345c0,4.5,3.7,8.2,8.2,8.2h25.8h150.4h56.3
							c17.8,0,32.5-13.6,34.1-31c15.1-5.4,28-16.4,35.8-31.1l38.7-75.5c2.2-5.8,3.1-11.8,2.8-17.7l15.3,28.8
							c-20.5,13-36.5,32.7-44.8,56.8c-1.5,4.3,0.8,8.9,5.1,10.4c0.9,0.3,1.8,0.4,2.6,0.4c3.4,0,6.6-2.1,7.7-5.5
							c6.9-20,20.1-36.6,37-47.6l4.6,8.6c-22.2,14.9-36.9,40.2-36.9,68.8c0,45.7,37.1,82.8,82.8,82.8s82.8-37.1,82.8-82.8
							S473.8,235.7,428.2,235.7z M109.1,213.2L109.1,213.2l-11.3,0H82.9v-29.5c0-2.3,1.3-3.8,2-4.5c0.8-0.7,2.4-1.8,4.7-1.5
							l123.9,14c12.3,1.4,22.1,10.1,25.3,21.5L109.1,213.2L109.1,213.2z M111.7,252.1c33.5,0,61.5,25.2,65.9,57.7H45.8
							C50.2,277.3,78.1,252.1,111.7,252.1z M243.2,336.9H18.8V326h240.8C256.9,332.4,250.5,336.9,243.2,336.9z M336.5,209.9
							l-1.3,3.3h-79.6c-0.1-0.6-0.2-1.2-0.4-1.8c0.3-10.9,6.7-21,17-25.8l25.4-11.8c8-3.7,17.5-3.5,25.3,0.6
							C335.8,181.2,341.6,196.4,336.5,209.9z M361.3,170.3v-2c0-9.5,7.7-17.2,17.2-17.2h10.7v36.5h-10.7
							C369.1,187.6,361.3,179.8,361.3,170.3z M390,264.2l28.9,52.1c1.5,2.8,4.3,4.3,7.2,4.3c1.3,0,2.6-0.3,3.8-1
							c4-2.1,5.5-7.1,3.4-11l-28.9-52.1C408.1,255.3,404.4,256.5,390,264.2z M428.2,385c-36.7,0-66.5-29.8-66.5-66.5
							c0-22.4,11.2-42.3,28.3-54.3l14.4-7.7c7.4-2.9,15.4-4.4,23.8-4.4c36.7,0,66.5,29.8,66.5,66.5S464.8,385,428.2,385z"/>
						<path d="M414.6,324.2C414.7,324.6,414.7,324.4,414.6,324.2c4,9.4,16.8,12.2,24,4.8c5.7-5.5,5.7-15.3,0-20.8
							c-4.8-5-12.9-5.7-18.6-1.8C414.2,310.1,412,317.7,414.6,324.2C414.5,323.9,414.4,323.8,414.6,324.2z"/>
					</g>
				</g>
			</g>
			<g>
				<g>
					<g>
						<path d="M41.6,352.5c12.3,26.7,39.4,44.2,69.1,44.2s56.8-17.6,69.1-44.2 M110.7,381.8c-21.4,0-41.2-11.4-52.1-29.2h9.5
							c10,13.5,25.7,21.4,42.6,21.4c16.9,0,32.6-7.9,42.6-21.4h9.5C151.9,370.4,132.1,381.8,110.7,381.8z M89.6,352.5h42.3
							c-6.2,4.1-13.5,6.4-21.1,6.4C103,358.9,95.7,356.6,89.6,352.5z"/>
					</g>
				</g>
			</g>
		</g>
	</g>
</g>
</svg>
