<?xml version="1.0" encoding="iso-8859-1"?>
<!-- Generator: Adobe Illustrator 19.0.0, SVG Export Plug-In . SVG Version: 6.00 Build 0)  -->
<svg version="1.1" id="Layer_1" xmlns="http://www.w3.org/2000/svg" xmlns:xlink="http://www.w3.org/1999/xlink" x="0px" y="0px"
	 viewBox="0 0 512.002 512.002" style="enable-background:new 0 0 512.002 512.002;" xml:space="preserve">
<g>
	<g>
		<g>
			<path d="M238.934,213.334c0-4.71-3.823-8.533-8.533-8.533h-34.133c-4.71,0-8.533,3.823-8.533,8.533
				c0,4.71,3.823,8.533,8.533,8.533h8.533c0,4.71,3.823,8.533,8.533,8.533c4.71,0,8.533-3.823,8.533-8.533h8.533
				C235.111,221.867,238.934,218.044,238.934,213.334z"/>
			<path d="M121.601,255.19c4.565,13.466,17.178,49.98,24.371,64.358c13.551,27.11,51.977,72.986,110.029,72.986
				s96.478-45.875,110.037-72.986c7.185-14.379,19.797-50.893,24.371-64.358c11.025-2.85,19.191-12.885,19.191-24.789v-34.133
				c0-11.127-7.134-20.617-17.067-24.141v-44.126c0-33.69-17.741-95.923-83.354-101.931c-0.137-4.028-1.476-7.27-2.953-9.668
				c-8.38-13.559-31.94-16.401-50.227-16.401c-151.842,0-153.6,143.616-153.6,145.067c0,4.71,3.814,8.525,8.525,8.525h0.009
				c4.702,0,8.525-3.806,8.533-8.516c0.017-5.222,1.937-128.009,136.533-128.009c24.132,0,33.801,5.222,35.703,8.311
				c0.282,0.435,0.998,1.604-0.666,4.941c-1.323,2.645-1.178,5.786,0.375,8.303c1.553,2.509,4.301,4.045,7.253,4.045
				c75.656,0,76.791,81.86,76.8,85.333v51.2c0,4.71,3.823,8.533,8.533,8.533c4.702,0,8.533,3.831,8.533,8.533v34.133
				c0,4.702-3.831,8.533-8.533,8.533c-3.669,0-6.929,2.347-8.098,5.837c-0.162,0.503-16.964,50.816-25.131,67.149
				c-1.297,2.594-32.495,63.548-94.771,63.548s-93.466-60.954-94.763-63.548c-8.166-16.333-24.977-66.645-25.139-67.149
				c-1.161-3.49-4.42-5.837-8.098-5.837c-4.702,0-8.533-3.831-8.533-8.533v-34.133c0-2.313,0.93-4.412,2.423-5.948
				c3.396,7.62,10.607,14.481,23.177,14.481c3.234,0,6.187-1.826,7.637-4.719c7.535-15.061,15.283-30.575,17.399-46.652
				c43.665-1.758,108.979-17.323,139.742-41.105c8.201,29.764,32.742,54.596,33.988,55.842c3.337,3.337,8.738,3.337,12.066,0
				c3.337-3.336,3.337-8.73,0-12.066c-0.316-0.316-31.633-31.983-31.633-62.234c0-3.831-2.56-7.202-6.255-8.226
				c-3.703-1.024-7.62,0.546-9.591,3.831c-14.549,24.243-94.746,47.061-146.287,47.061c-4.71,0-8.533,3.823-8.533,8.533
				c0,13.295-6.127,27.102-13.286,41.6c-2.901-1.604-3.703-4.753-3.78-7.467c0-4.71-3.823-8.533-8.533-8.533
				c-14.114,0-25.6,11.486-25.6,25.6v34.133C102.401,242.305,110.576,252.34,121.601,255.19z"/>
			<path d="M256.001,332.801c20.028,0,30.507-9.907,31.633-11.034c3.294-3.294,3.285-8.567,0.051-11.913
				c-3.243-3.354-8.619-3.439-12.023-0.247c-0.265,0.247-6.699,6.127-19.661,6.127c-12.774,0-19.209-5.709-19.652-6.118
				c-3.336-3.251-8.678-3.217-11.981,0.085c-3.328,3.337-3.328,8.73,0,12.066C225.503,322.893,235.982,332.801,256.001,332.801z"/>
			<path d="M264.79,281.601c0-4.71-3.814-8.533-8.533-8.533h-0.085c-4.71,0-8.491,3.823-8.491,8.533c0,4.71,3.866,8.533,8.576,8.533
				C260.976,290.134,264.79,286.311,264.79,281.601z"/>
			<path d="M511.745,501.394l-8.713-34.756c-4.386-13.158-30.285-55.484-178.765-56.636v-8.934c0-4.71-3.823-8.533-8.533-8.533
				s-8.533,3.823-8.533,8.533v17.067c0,0.06,0.034,0.111,0.034,0.171c0,0.051-0.034,0.094-0.034,0.154
				c-0.034,5.205-1.749,50.876-51.2,50.876s-51.166-45.986-51.2-51.2v-17.067c0-4.71-3.823-8.533-8.533-8.533
				s-8.533,3.823-8.533,8.533v8.619C77.168,410.556,21.786,428.203,8.79,467.26l-8.533,34.133
				c-1.143,4.574,1.638,9.207,6.212,10.351c4.557,1.143,9.199-1.638,10.342-6.204l8.354-33.51
				c9.916-29.739,63.309-44.595,163.132-45.338c3.098,24.431,19.712,59.708,67.704,59.708c47.983,0,64.597-35.063,67.703-59.366
				c116.958,0.862,157.628,28.467,162.953,44.373l8.533,34.133c0.973,3.874,4.446,6.46,8.269,6.46c0.691,0,1.382-0.077,2.082-0.256
				C510.115,510.601,512.888,505.968,511.745,501.394z"/>
			<path d="M298.668,230.401c4.71,0,8.533-3.823,8.533-8.533h8.533c4.71,0,8.533-3.823,8.533-8.533c0-4.71-3.823-8.533-8.533-8.533
				h-34.133c-4.71,0-8.533,3.823-8.533,8.533c0,4.71,3.823,8.533,8.533,8.533h8.533
				C290.134,226.578,293.957,230.401,298.668,230.401z"/>
		</g>
	</g>
</g>
<g>
</g>
<g>
</g>
<g>
</g>
<g>
</g>
<g>
</g>
<g>
</g>
<g>
</g>
<g>
</g>
<g>
</g>
<g>
</g>
<g>
</g>
<g>
</g>
<g>
</g>
<g>
</g>
<g>
</g>
</svg>
