<?xml version="1.0" encoding="utf-8"?>
<!-- Generator: Adobe Illustrator 20.0.0, SVG Export Plug-In . SVG Version: 6.00 Build 0)  -->
<svg version="1.1" id="Layer_1" xmlns="http://www.w3.org/2000/svg" xmlns:xlink="http://www.w3.org/1999/xlink" x="0px" y="0px"
	 viewBox="0 0 512 512" style="enable-background:new 0 0 512 512;" xml:space="preserve">
<style type="text/css">
	.st0{fill:#FFFFFF;}
</style>
<g>
	<g>
		<g>
			<path class="st0" d="M238.9,213.3c0-4.7-3.8-8.5-8.5-8.5h-34.1c-4.7,0-8.5,3.8-8.5,8.5s3.8,8.5,8.5,8.5h8.5
				c0,4.7,3.8,8.5,8.5,8.5s8.5-3.8,8.5-8.5h8.5C235.1,221.9,238.9,218,238.9,213.3z"/>
			<path class="st0" d="M121.6,255.2c4.6,13.5,17.2,50,24.4,64.4c13.6,27.1,52,73,110,73s96.5-45.9,110-73
				c7.2-14.4,19.8-50.9,24.4-64.4c11-2.9,19.2-12.9,19.2-24.8v-34.1c0-11.1-7.1-20.6-17.1-24.1V128c0-33.7-17.7-95.9-83.4-101.9
				c-0.1-4-1.5-7.3-3-9.7C297.8,2.8,274.3,0,256,0C104.2,0,102.4,143.6,102.4,145.1c0,4.7,3.8,8.5,8.5,8.5h0c4.7,0,8.5-3.8,8.5-8.5
				c0-5.2,1.9-128,136.5-128c24.1,0,33.8,5.2,35.7,8.3c0.3,0.4,1,1.6-0.7,4.9c-1.3,2.6-1.2,5.8,0.4,8.3c1.6,2.5,4.3,4,7.3,4
				c75.7,0,76.8,81.9,76.8,85.3v51.2c0,4.7,3.8,8.5,8.5,8.5c4.7,0,8.5,3.8,8.5,8.5v34.1c0,4.7-3.8,8.5-8.5,8.5
				c-3.7,0-6.9,2.3-8.1,5.8c-0.2,0.5-17,50.8-25.1,67.1c-1.3,2.6-32.5,63.5-94.8,63.5s-93.5-61-94.8-63.5
				c-8.2-16.3-25-66.6-25.1-67.1c-1.2-3.5-4.4-5.8-8.1-5.8c-4.7,0-8.5-3.8-8.5-8.5v-34.1c0-2.3,0.9-4.4,2.4-5.9
				c3.4,7.6,10.6,14.5,23.2,14.5c3.2,0,6.2-1.8,7.6-4.7c7.5-15.1,15.3-30.6,17.4-46.7c43.7-1.8,109-17.3,139.7-41.1
				c8.2,29.8,32.7,54.6,34,55.8c3.3,3.3,8.7,3.3,12.1,0c3.3-3.3,3.3-8.7,0-12.1c-0.3-0.3-31.6-32-31.6-62.2c0-3.8-2.6-7.2-6.3-8.2
				c-3.7-1-7.6,0.5-9.6,3.8c-14.5,24.2-94.7,47.1-146.3,47.1c-4.7,0-8.5,3.8-8.5,8.5c0,13.3-6.1,27.1-13.3,41.6
				c-2.9-1.6-3.7-4.8-3.8-7.5c0-4.7-3.8-8.5-8.5-8.5c-14.1,0-25.6,11.5-25.6,25.6v34.1C102.4,242.3,110.6,252.3,121.6,255.2z"/>
			<path class="st0" d="M256,332.8c20,0,30.5-9.9,31.6-11c3.3-3.3,3.3-8.6,0.1-11.9c-3.2-3.4-8.6-3.4-12-0.2
				c-0.3,0.2-6.7,6.1-19.7,6.1c-12.8,0-19.2-5.7-19.7-6.1c-3.3-3.3-8.7-3.2-12,0.1c-3.3,3.3-3.3,8.7,0,12.1
				C225.5,322.9,236,332.8,256,332.8z"/>
			<path class="st0" d="M264.8,281.6c0-4.7-3.8-8.5-8.5-8.5h-0.1c-4.7,0-8.5,3.8-8.5,8.5s3.9,8.5,8.6,8.5
				C261,290.1,264.8,286.3,264.8,281.6z"/>
			<path class="st0" d="M511.7,501.4l-8.7-34.8c-4.4-13.2-30.3-55.5-178.8-56.6v-8.9c0-4.7-3.8-8.5-8.5-8.5s-8.5,3.8-8.5,8.5v17.1
				c0,0.1,0,0.1,0,0.2c0,0.1,0,0.1,0,0.2c0,5.2-1.7,50.9-51.2,50.9s-51.2-46-51.2-51.2v-17.1c0-4.7-3.8-8.5-8.5-8.5
				s-8.5,3.8-8.5,8.5v8.6C77.2,410.6,21.8,428.2,8.8,467.3l-8.5,34.1c-1.1,4.6,1.6,9.2,6.2,10.4c4.6,1.1,9.2-1.6,10.3-6.2l8.4-33.5
				c9.9-29.7,63.3-44.6,163.1-45.3c3.1,24.4,19.7,59.7,67.7,59.7c48,0,64.6-35.1,67.7-59.4c117,0.9,157.6,28.5,163,44.4l8.5,34.1
				c1,3.9,4.4,6.5,8.3,6.5c0.7,0,1.4-0.1,2.1-0.3C510.1,510.6,512.9,506,511.7,501.4z"/>
			<path class="st0" d="M298.7,230.4c4.7,0,8.5-3.8,8.5-8.5h8.5c4.7,0,8.5-3.8,8.5-8.5s-3.8-8.5-8.5-8.5h-34.1
				c-4.7,0-8.5,3.8-8.5,8.5s3.8,8.5,8.5,8.5h8.5C290.1,226.6,294,230.4,298.7,230.4z"/>
		</g>
	</g>
</g>
</svg>
