<?xml version="1.0" encoding="utf-8"?>
<!-- Generator: Adobe Illustrator 20.0.0, SVG Export Plug-In . SVG Version: 6.00 Build 0)  -->
<svg version="1.1" id="Layer_1" xmlns="http://www.w3.org/2000/svg" xmlns:xlink="http://www.w3.org/1999/xlink" x="0px" y="0px"
	 viewBox="0 0 512.1 512.1" style="enable-background:new 0 0 512.1 512.1;" xml:space="preserve">
<style type="text/css">
	.st0{fill:#FFFFFF;}
</style>
<g>
	<g>
		<g>
			<path class="st0" d="M73.4,187.1c4.3,1.8,9.3-0.2,11.2-4.5l25.4-59.3c7.1-14.2,18.3-20.9,35-20.9h119.5c20.7,0,39.9,11,52.8,30.7
				l51,67.7c2.2,4.1,12.8,21,32.7,21h25.6c36.6,0,51.1,20.3,56.8,34.1h-14.1c-4.7,0-8.5,3.8-8.5,8.5s3.8,8.5,8.5,8.5h18.3l7,43.2
				c0.6,2.3,0.4,4-0.6,5.3c-1.3,1.7-4.1,2.7-7.7,2.7H460c-4.2-28.9-29-51.2-59.1-51.2c-32.9,0-59.7,26.8-59.7,59.7
				s26.8,59.7,59.7,59.7c30,0,54.9-22.3,59.1-51.2h26.3c9.1,0,16.6-3.3,21.2-9.3c4.2-5.5,5.5-12.6,3.7-19.2l-8.1-49.9
				c-5.6-28.1-28.7-58.1-76.6-58.1H401c-11.4,0-17.7-12.2-17.8-12.3c-0.2-0.5-0.5-0.9-0.8-1.4l-51-67.8c-15.6-23.8-40.6-38-66.8-38
				H145.1c-23.3,0-40.2,10.2-50.5,30.8l-25.6,60C67.1,180.2,69.1,185.2,73.4,187.1z M401,375.5c-23.5,0-42.7-19.1-42.7-42.7
				c0-23.5,19.1-42.7,42.7-42.7c23.5,0,42.7,19.1,42.7,42.7S424.5,375.5,401,375.5z"/>
			<path class="st0" d="M25.6,341.4H30c4.7,0,8.5-3.8,8.5-8.5s-3.8-8.5-8.5-8.5h-4.4c-4.7,0-8.5-3.8-8.5-8.5v-42.7h8.5
				c4.7,0,8.5-3.8,8.5-8.5s-3.8-8.5-8.5-8.5h-8.5v-25.6c0-4.7,3.8-8.5,8.5-8.5h163.7h17.4h143.1c4.7,0,8.5-3.8,8.5-8.5
				s-3.8-8.5-8.5-8.5h-28.9l10.9-21.8c2.1-4.2,0.4-9.3-3.8-11.4c-4.2-2.1-9.3-0.4-11.4,3.8l-14.7,29.4h-97.1V128
				c0-4.7-3.8-8.5-8.5-8.5s-8.5,3.8-8.5,8.5v76.8H25.6C11.5,204.8,0,216.3,0,230.4v85.3C0,329.9,11.5,341.4,25.6,341.4z"/>
			<path class="st0" d="M324.2,332.8c0-4.7-3.8-8.5-8.5-8.5H170c-4.2-28.9-29-51.2-59.1-51.2c-32.9,0-59.7,26.8-59.7,59.7
				s26.8,59.7,59.7,59.7c30,0,54.9-22.3,59.1-51.2h145.7C320.4,341.4,324.2,337.5,324.2,332.8z M110.9,375.5
				c-23.5,0-42.7-19.1-42.7-42.7c0-23.5,19.1-42.7,42.7-42.7c23.5,0,42.7,19.1,42.7,42.7C153.6,356.4,134.5,375.5,110.9,375.5z"/>
			<path class="st0" d="M401,307.2c-14.1,0-25.6,11.5-25.6,25.6s11.5,25.6,25.6,25.6s25.6-11.5,25.6-25.6S415.1,307.2,401,307.2z
				 M401,341.4c-4.7,0-8.5-3.8-8.5-8.5s3.8-8.5,8.5-8.5s8.5,3.8,8.5,8.5C409.5,337.5,405.7,341.4,401,341.4z"/>
			<path class="st0" d="M320,245.6c-8,0-14.4,6.4-14.4,14.4c0,8,6.4,14.4,14.4,14.4h14.4c8,0,14.4-6.4,14.4-14.4
				c0-8-6.4-14.4-14.4-14.4H320L320,245.6z"/>
			<path class="st0" d="M208.2,244c-8,0-14.4,6.4-14.4,14.4c0,8,6.4,14.4,14.4,14.4h14.4c8,0,14.4-6.4,14.4-14.4
				c0-8-6.4-14.4-14.4-14.4H208.2L208.2,244z"/>
			<path class="st0" d="M110.9,307.2c-14.1,0-25.6,11.5-25.6,25.6s11.5,25.6,25.6,25.6s25.6-11.5,25.6-25.6S125,307.2,110.9,307.2z
				 M110.9,341.4c-4.7,0-8.5-3.8-8.5-8.5s3.8-8.5,8.5-8.5s8.5,3.8,8.5,8.5C119.5,337.5,115.6,341.4,110.9,341.4z"/>
			<path class="st0" d="M291.8,271.1c-8,0-14.4,6.4-14.4,14.4c0,8,6.4,14.4,14.4,14.4h14.4c8,0,14.4-6.4,14.4-14.4
				c0-8-6.4-14.4-14.4-14.4H291.8L291.8,271.1z"/>
			<path class="st0" d="M263,244c-8,0-14.4,6.4-14.4,14.4c0,8,6.4,14.4,14.4,14.4h14.4c8,0,14.4-6.4,14.4-14.4
				c0-8-6.4-14.4-14.4-14.4H263L263,244z"/>
			<path class="st0" d="M234.9,271.3c-8,0-14.4,6.4-14.4,14.4c0,8,6.4,14.4,14.4,14.4h14.4c8,0,14.4-6.4,14.4-14.4
				c0-8-6.4-14.4-14.4-14.4H234.9L234.9,271.3z"/>
		</g>
	</g>
</g>
<path class="st0" d="M197.4,82.4h3.4h22.6h14c11,0,19.9-6.9,19.9-15.4s-8.9-15.4-19.9-15.4h-39.8c-3.7,0-6.6,2.3-6.6,5.1v20.5
	C190.8,80,193.7,82.4,197.4,82.4z"/>
</svg>
