<?xml version="1.0" encoding="utf-8"?>
<!-- Generator: Adobe Illustrator 20.0.0, SVG Export Plug-In . SVG Version: 6.00 Build 0)  -->
<svg version="1.1" id="Layer_1" xmlns="http://www.w3.org/2000/svg" xmlns:xlink="http://www.w3.org/1999/xlink" x="0px" y="0px"
	 viewBox="0 0 512.1 512.1" style="enable-background:new 0 0 512.1 512.1;" xml:space="preserve">
<g>
	<g>
		<g>
			<path d="M73.4,187.1c4.3,1.8,9.3-0.2,11.2-4.5l25.4-59.3c7.1-14.2,18.3-20.9,35-20.9h119.5c20.7,0,39.9,11,52.8,30.7l51,67.7
				c2.2,4.1,12.8,21,32.7,21h25.6c36.6,0,51.1,20.3,56.8,34.1h-14.1c-4.7,0-8.5,3.8-8.5,8.5s3.8,8.5,8.5,8.5h18.3l7,43.2
				c0.6,2.3,0.4,4-0.6,5.3c-1.3,1.7-4.1,2.7-7.7,2.7H460c-4.2-28.9-29-51.2-59.1-51.2c-32.9,0-59.7,26.8-59.7,59.7
				c0,32.9,26.8,59.7,59.7,59.7c30,0,54.9-22.3,59.1-51.2h26.3c9.1,0,16.6-3.3,21.2-9.3c4.2-5.5,5.5-12.6,3.7-19.2l-8.1-49.9
				c-5.6-28.1-28.7-58.1-76.6-58.1H401c-11.4,0-17.7-12.2-17.8-12.3c-0.2-0.5-0.5-0.9-0.8-1.4l-51-67.8c-15.6-23.8-40.6-38-66.8-38
				H145.1c-23.3,0-40.2,10.2-50.5,30.8L69,175.9C67.1,180.2,69.1,185.2,73.4,187.1z M401,375.5c-23.5,0-42.7-19.1-42.7-42.7
				c0-23.5,19.1-42.7,42.7-42.7c23.5,0,42.7,19.1,42.7,42.7C443.7,356.4,424.5,375.5,401,375.5z"/>
			<path d="M25.6,341.4H30c4.7,0,8.5-3.8,8.5-8.5s-3.8-8.5-8.5-8.5h-4.4c-4.7,0-8.5-3.8-8.5-8.5v-42.7h8.5c4.7,0,8.5-3.8,8.5-8.5
				s-3.8-8.5-8.5-8.5h-8.5v-25.6c0-4.7,3.8-8.5,8.5-8.5h163.7l17.4,0h143.1c4.7,0,8.5-3.8,8.5-8.5s-3.8-8.5-8.5-8.5h-28.9l10.9-21.8
				c2.1-4.2,0.4-9.3-3.8-11.4c-4.2-2.1-9.3-0.4-11.4,3.8l-14.7,29.4h-97.1V128c0-4.7-3.8-8.5-8.5-8.5s-8.5,3.8-8.5,8.5v76.8H25.6
				C11.5,204.8,0,216.3,0,230.4v85.3C0,329.9,11.5,341.4,25.6,341.4z"/>
			<path d="M324.2,332.8c0-4.7-3.8-8.5-8.5-8.5H170c-4.2-28.9-29-51.2-59.1-51.2c-32.9,0-59.7,26.8-59.7,59.7
				c0,32.9,26.8,59.7,59.7,59.7c30,0,54.9-22.3,59.1-51.2h145.7C320.4,341.4,324.2,337.5,324.2,332.8z M110.9,375.5
				c-23.5,0-42.7-19.1-42.7-42.7c0-23.5,19.1-42.7,42.7-42.7c23.5,0,42.7,19.1,42.7,42.7C153.6,356.4,134.5,375.5,110.9,375.5z"/>
			<path d="M401,307.2c-14.1,0-25.6,11.5-25.6,25.6s11.5,25.6,25.6,25.6c14.1,0,25.6-11.5,25.6-25.6S415.1,307.2,401,307.2z
				 M401,341.4c-4.7,0-8.5-3.8-8.5-8.5s3.8-8.5,8.5-8.5c4.7,0,8.5,3.8,8.5,8.5C409.5,337.5,405.7,341.4,401,341.4z"/>
			<path d="M267.9,242c-4.7,0-8.5,3.8-8.5,8.5s3.8,8.5,8.5,8.5h8.5c4.7,0,8.5-3.8,8.5-8.5s-3.8-8.5-8.5-8.5L267.9,242L267.9,242z"/>
			<path d="M202,241c-4.7,0-8.5,3.8-8.5,8.5s3.8,8.5,8.5,8.5h8.5c4.7,0,8.5-3.8,8.5-8.5s-3.8-8.5-8.5-8.5L202,241L202,241z"/>
			<path d="M110.9,307.2c-14.1,0-25.6,11.5-25.6,25.6s11.5,25.6,25.6,25.6s25.6-11.5,25.6-25.6S125,307.2,110.9,307.2z M110.9,341.4
				c-4.7,0-8.5-3.8-8.5-8.5s3.8-8.5,8.5-8.5c4.7,0,8.5,3.8,8.5,8.5C119.5,337.5,115.6,341.4,110.9,341.4z"/>
			<path d="M251.3,257c-4.7,0-8.5,3.8-8.5,8.5c0,4.7,3.8,8.5,8.5,8.5h8.5c4.7,0,8.5-3.8,8.5-8.5c0-4.7-3.8-8.5-8.5-8.5L251.3,257
				L251.3,257z"/>
			<path d="M234.3,241c-4.7,0-8.5,3.8-8.5,8.5s3.8,8.5,8.5,8.5h8.5c4.7,0,8.5-3.8,8.5-8.5s-3.8-8.5-8.5-8.5L234.3,241L234.3,241z"/>
			<path d="M217.7,257.1c-4.7,0-8.5,3.8-8.5,8.5c0,4.7,3.8,8.5,8.5,8.5h8.5c4.7,0,8.5-3.8,8.5-8.5c0-4.7-3.8-8.5-8.5-8.5H217.7
				L217.7,257.1z"/>
		</g>
	</g>
</g>
<path d="M195.5,82.4h2.4l16,0h9.9c7.8,0,14.1-4.9,14.1-10.9c0-6-6.3-10.9-14.1-10.9h-28.2c-2.6,0-4.7,1.6-4.7,3.6v14.5
	C190.8,80.7,192.9,82.4,195.5,82.4z"/>
</svg>
