<?xml version="1.0" encoding="utf-8"?>
<!-- Generator: Adobe Illustrator 20.0.0, SVG Export Plug-In . SVG Version: 6.00 Build 0)  -->
<svg version="1.1" id="Layer_1" xmlns="http://www.w3.org/2000/svg" xmlns:xlink="http://www.w3.org/1999/xlink" x="0px" y="0px"
	 viewBox="0 0 512 512" style="enable-background:new 0 0 512 512;" xml:space="preserve">
<g>
	<g>
		<g>
			<path d="M196.3,375.5c4.7,0,8.5-3.8,8.5-8.5V221.9c0-9.4-7.7-17.1-17.1-17.1h-68.3c-9.4,0-17.1,7.7-17.1,17.1v145.1
				c0,4.7,3.8,8.5,8.5,8.5s8.5-3.8,8.5-8.5V221.9h68.3v145.1C187.7,371.6,191.6,375.5,196.3,375.5z"/>
			<path d="M34.1,401.1c0,4.7,3.8,8.5,8.5,8.5h409.6c4.7,0,8.5-3.8,8.5-8.5s-3.8-8.5-8.5-8.5H42.7C38,392.5,34.1,396.4,34.1,401.1z"
				/>
			<path d="M501.8,327.7l-127.6-170c-0.5-0.9-13.3-21.1-41.4-21.1H42.7c-4.7,0-8.5,3.8-8.5,8.5s3.8,8.5,8.5,8.5h290.1
				c18.3,0,26.6,12.5,27.3,13.7l92.2,122.9h-25.6v-8.5c0-4.7-3.8-8.5-8.5-8.5s-8.5,3.8-8.5,8.5v8.5h-68.3v-68.3h25.6
				c4.7,0,8.5-3.8,8.5-8.5s-3.8-8.5-8.5-8.5h-25.6c-9.4,0-17.1,7.7-17.1,17.1v68.3c0,9.4,7.7,17.1,17.1,17.1h123.7l23.3,31
				c0.1,0.1,6.6,8.6,6.6,28.7v25.6h-8.5c-4.7,0-8.5,3.8-8.5,8.5s3.8,8.5,8.5,8.5h8.5v25.6c0,5.3-3.3,8.5-8.5,8.5H42.7
				c-4.7,0-8.5,3.8-8.5,8.5s3.8,8.5,8.5,8.5h443.7c14.6,0,25.6-11,25.6-25.6v-68.3C512,340.4,502.5,328.5,501.8,327.7z"/>
			<path d="M68.3,204.8H42.7c-4.7,0-8.5,3.8-8.5,8.5s3.8,8.5,8.5,8.5h25.6v68.3H42.7c-4.7,0-8.5,3.8-8.5,8.5s3.8,8.5,8.5,8.5h25.6
				c9.4,0,17.1-7.7,17.1-17.1v-68.3C85.3,212.5,77.7,204.8,68.3,204.8z"/>
			<path d="M273.1,307.2c9.4,0,17.1-7.7,17.1-17.1v-68.3c0-9.4-7.7-17.1-17.1-17.1h-34.1c-9.4,0-17.1,7.7-17.1,17.1v68.3
				c0,9.4,7.7,17.1,17.1,17.1H273.1z M238.9,221.9h34.1l0,68.3h-34.1L238.9,221.9L238.9,221.9z"/>
		</g>
	</g>
</g>
</svg>
